<svg xmlns="http://www.w3.org/2000/svg" width="21.803" height="25.9" viewBox="0 0 21.803 25.9">
  <path id="_001-questions" data-name="001-questions" d="M43.535,21.853H59.267A3.039,3.039,0,0,0,62.3,18.818V3.035A3.039,3.039,0,0,0,59.267,0H43.535A3.039,3.039,0,0,0,40.5,3.035v19.83A3.039,3.039,0,0,0,43.535,25.9H59.267A3.039,3.039,0,0,0,62.3,22.865v0a5.032,5.032,0,0,1-3.035,1.014H43.535a1.012,1.012,0,1,1,0-2.023ZM42.523,3.035a1.013,1.013,0,0,1,1.012-1.012H59.267a1.013,1.013,0,0,1,1.012,1.012V18.818a1.013,1.013,0,0,1-1.012,1.012H43.535A3.022,3.022,0,0,0,42.523,20Zm7.183,5.493H47.683A3.664,3.664,0,0,1,48.9,5.8a3.733,3.733,0,0,1,2.9-.922,3.689,3.689,0,0,1,3.244,3.236,4.093,4.093,0,0,1-1.427,3.339c-.178.179-.343.336-.489.475-.661.631-.745.737-.745,1.172v.051H50.365V13.1a3.3,3.3,0,0,1,1.372-2.636c.143-.136.291-.278.451-.438.653-.656.907-1.162.849-1.691a1.652,1.652,0,0,0-1.456-1.446,1.686,1.686,0,0,0-1.328.419A1.616,1.616,0,0,0,49.707,8.528Zm.658,6.142h2.023v2.023H50.364Z" transform="translate(-40.5)" fill="#55d6aa"/>
</svg>
