<svg xmlns="http://www.w3.org/2000/svg" xmlns:xlink="http://www.w3.org/1999/xlink" width="69.413" height="33.089" viewBox="0 0 69.413 33.089">
  <defs>
    <linearGradient id="linear-gradient" x1="0.5" y1="1" x2="0.5" gradientUnits="objectBoundingBox">
      <stop offset="0" stop-color="#ff4842"/>
      <stop offset="1" stop-color="#fff"/>
    </linearGradient>
  </defs>
  <g id="Group_29" data-name="Group 29" transform="translate(96.455 299.25) rotate(180)">
    <path id="Path_37" data-name="Path 37" d="M5083.736,330.855s5.663,3.85,6.027,4.147a2.927,2.927,0,0,0,2,.817h2.136a2.057,2.057,0,0,1,1.908.891c.636.891,5.951,7.5,6.36,8.093a1.3,1.3,0,0,0,2.089-.148c.5-.817,1.454-1.782,1.636-2.079s.5-.631,1.591-.631h1.907a2.128,2.128,0,0,0,2.182-1.225c.544-1.411,2.226-5.123,2.543-5.792s2.409-1.039,2.636,0,.591,2.45.727,3.081a.814.814,0,0,0,1.408.483c.546-.594,1.363-.408,1.727.891a25.876,25.876,0,0,0,2.317,5.049,25.476,25.476,0,0,1,2.816,8.019,88.3,88.3,0,0,0,2.362,9.393c.272,1.151,2.136,1.262,2.271,0s.5-4.863.545-5.235a2.369,2.369,0,0,1,1.227-1.745,6.636,6.636,0,0,0,2.362-2c.728-1.04,1-3.787,1.272-5.235s.772-1.819,1.954-1.819h3c1,0,1.727-.186,1.817-1.374a1.32,1.32,0,0,1,2.589,0c.363,1.634,1.545,6.831,1.817,8.168s1.771,1.893,2.636-.334a46.274,46.274,0,0,1,2.18-4.641v-16.77Z" transform="translate(-5056 -64)" opacity="0.27" fill="url(#linear-gradient)"/>
    <path id="Path_38" data-name="Path 38" d="M5083.736,330.855s5.663,3.85,6.027,4.147a2.927,2.927,0,0,0,2,.817h2.136a2.057,2.057,0,0,1,1.908.891c.636.891,5.951,7.5,6.36,8.093a1.3,1.3,0,0,0,2.089-.148c.5-.817,1.454-1.782,1.636-2.079s.5-.631,1.591-.631h1.907a2.128,2.128,0,0,0,2.182-1.225c.544-1.411,2.226-5.123,2.543-5.792s2.409-1.039,2.636,0,.591,2.45.727,3.081a.814.814,0,0,0,1.408.483c.546-.594,1.363-.408,1.727.891a25.876,25.876,0,0,0,2.317,5.049,25.476,25.476,0,0,1,2.816,8.019,88.3,88.3,0,0,0,2.362,9.393c.272,1.151,2.136,1.262,2.271,0s.5-4.863.545-5.235a2.369,2.369,0,0,1,1.227-1.745,6.636,6.636,0,0,0,2.362-2c.728-1.04,1-3.787,1.272-5.235s.772-1.819,1.954-1.819h3c1,0,1.727-.186,1.817-1.374a1.32,1.32,0,0,1,2.589,0c.363,1.634,1.545,6.831,1.817,8.168s1.771,1.893,2.636-.334a46.274,46.274,0,0,1,2.18-4.641" transform="translate(-5056 -64)" fill="none" stroke="#ff4842" stroke-linecap="round" stroke-width="1"/>
  </g>
</svg>
