<svg xmlns="http://www.w3.org/2000/svg" width="23.626" height="22.681" viewBox="0 0 23.626 22.681">
  <g id="_002-chart" data-name="002-chart" transform="translate(0 -75.608)">
    <path id="Path_53" data-name="Path 53" d="M141.752,260.706h-1.363v-1.363a.943.943,0,1,0-1.886,0v1.363h-1.363a.943.943,0,0,0-.943.943v4.612a.943.943,0,0,0,.943.943H138.5v1.44a.943.943,0,1,0,1.886,0V267.2h1.363a.943.943,0,0,0,.943-.943V261.65a.943.943,0,0,0-.943-.943Z" transform="translate(-127.633 -171.299)" fill="#5a5a5a"/>
    <path id="Path_54" data-name="Path 54" d="M277.95,187.344h-1.363v-1.363a.943.943,0,0,0-1.886,0v1.363h-1.363a.943.943,0,0,0-.943.943V192.9a.943.943,0,0,0,.943.943H274.7V199.9a.943.943,0,1,0,1.886,0v-6.053h1.363a.943.943,0,0,0,.943-.943v-4.612A.943.943,0,0,0,277.95,187.344Z" transform="translate(-255.267 -102.55)" fill="#5a5a5a"/>
    <path id="Path_56" data-name="Path 56" d="M5.556,82.413H4.193V76.552a.943.943,0,1,0-1.886,0v5.861H.943A.943.943,0,0,0,0,83.356v7.072a.943.943,0,0,0,.943.943H2.306v1.363a.943.943,0,0,0,1.886,0V91.371H5.556a.943.943,0,0,0,.943-.943V83.356A.943.943,0,0,0,5.556,82.413Z" transform="translate(0 -0.001)" fill="#5a5a5a"/>
  </g>
</svg>
