<svg id="_001-motion-sensor" data-name="001-motion-sensor" xmlns="http://www.w3.org/2000/svg" width="17.5" height="17.5" viewBox="0 0 17.5 17.5">
  <path id="Path_9" data-name="Path 9" d="M104.545,59.236a1.538,1.538,0,0,0-.477-2.5,1.541,1.541,0,0,0-.74-2.183,1.539,1.539,0,0,0-2.127-2.048,1.54,1.54,0,0,0-2.5-.476l-3.9,3.9V54.868a1.538,1.538,0,0,0-3.076-.034L91,60.731a.513.513,0,0,0,.146.425l3.926,3.926a.513.513,0,0,0,.427.146,10.377,10.377,0,0,0,5.993-2.941ZM95.62,64.175l-3.568-3.568.695-5.677a.513.513,0,0,0,0-.062.513.513,0,1,1,1.025,0v2.3a.513.513,0,0,0,.875.363l4.775-4.775a.513.513,0,1,1,.725.725l-2.962,2.962a.513.513,0,0,0,.725.725L101.6,53.48a.513.513,0,1,1,.725.725l-3.688,3.688a.513.513,0,0,0,.725.725l3.006-3.006a.513.513,0,0,1,.725.725l-3.006,3.006a.513.513,0,0,0,0,.725.521.521,0,0,0,.039.035.513.513,0,0,0,.686-.035l2.281-2.281a.513.513,0,0,1,.725.725l-3.05,3.05A9.35,9.35,0,0,1,95.62,64.175Z" transform="translate(-87.889 -49.816)" fill="#fff"/>
  <path id="Path_10" data-name="Path 10" d="M366.614,362a.513.513,0,0,0-.513.513,3.593,3.593,0,0,1-3.589,3.589.513.513,0,0,0,0,1.025,4.619,4.619,0,0,0,4.614-4.614A.513.513,0,0,0,366.614,362Z" transform="translate(-349.627 -349.627)" fill="#fff"/>
  <path id="Path_11" data-name="Path 11" d="M364.051,362.513a1.54,1.54,0,0,1-1.538,1.538.513.513,0,0,0,0,1.025,2.566,2.566,0,0,0,2.563-2.563.513.513,0,0,0-1.025,0Z" transform="translate(-349.627 -349.627)" fill="#fff"/>
  <path id="Path_12" data-name="Path 12" d="M4.614,1.025A.513.513,0,1,0,4.614,0,4.619,4.619,0,0,0,0,4.614a.513.513,0,1,0,1.025,0A3.593,3.593,0,0,1,4.614,1.025Z" fill="#fff"/>
  <path id="Path_13" data-name="Path 13" d="M62.563,61.025a.513.513,0,0,0,0-1.025A2.566,2.566,0,0,0,60,62.563a.513.513,0,0,0,1.025,0A1.54,1.54,0,0,1,62.563,61.025Z" transform="translate(-57.949 -57.949)" fill="#fff"/>
</svg>
